<svg width="15" height="10" viewBox="0 0 15 10" fill="none" xmlns="http://www.w3.org/2000/svg">
<path fill-rule="evenodd" clip-rule="evenodd" d="M7.5208 0.507812C4.43747 0.507812 1.58747 2.14716 0.0708008 4.7865C-0.0125325 4.91765 -0.0125325 5.08158 0.0708008 5.21273C1.58747 7.85207 4.4208 9.49142 7.50413 9.49142C10.5875 9.49142 13.4375 7.85207 14.9375 5.21273C15.0208 5.08158 15.0208 4.91765 14.9375 4.7865C13.4541 2.14716 10.6041 0.507812 7.5208 0.507812ZM7.5208 1.37666C10.2041 1.37666 12.6875 2.75371 14.0708 4.99962C12.6875 7.24552 10.2041 8.62257 7.5208 8.62257C4.83747 8.62257 2.35413 7.24552 0.970801 4.99962C2.35413 2.75371 4.83747 1.37666 7.5208 1.37666ZM7.5208 2.37666C6.05413 2.37666 4.85413 3.55699 4.85413 4.99962C4.85413 6.44224 6.05413 7.62257 7.5208 7.62257C8.98747 7.62257 10.1875 6.44224 10.1875 4.99962C10.1875 3.55699 8.98747 2.37666 7.5208 2.37666ZM7.5208 3.24552C8.5208 3.24552 9.30414 4.0324 9.30414 4.99962C9.30414 5.96683 8.50413 6.75371 7.5208 6.75371C6.53747 6.75371 5.73747 5.96683 5.73747 4.99962C5.73747 4.0324 6.53747 3.24552 7.5208 3.24552Z" fill="black"/>
</svg>
