<svg width="260" height="280" viewBox="0 0 260 280" fill="none" xmlns="http://www.w3.org/2000/svg">
<path d="M228.067 150.823C224.477 148.186 222.286 146.789 218.855 145.154C217.984 144.627 216.454 144.047 216.295 142.992C216.242 142.359 217.14 141.753 218.512 141.146C222.709 139.353 227.723 137.007 231.973 134.475C249.524 124.957 265.993 104.734 257.864 84.0626L257.732 83.7725C240.788 55.6394 199.721 62.9429 176.468 79.5012C171.797 82.4278 165.832 86.5938 161.398 90.1796C157.861 93.1327 158.204 89.8632 158.627 87.2529C162.163 65.1841 163.984 43.4844 155.116 22.6285C149.653 10.1043 137.724 -0.284103 123.867 0.00592964C115.685 1.03423 108.058 5.09468 102.014 11.3963C86.8115 27.8227 84.5154 51.4471 88.2368 72.7249C88.3952 74.1751 88.6326 77.0491 86.3628 76.3635C72.9288 67.768 59.7587 58.7507 43.923 56.2986C28.4831 53.2137 10.8263 60.9127 5.38934 75.968C-3.61065 99.6452 17.2662 121.371 37.1137 131.496C38.5653 132.393 41.1782 133.157 41.8908 134.739C42.0228 135.372 41.2574 135.899 39.9378 136.453C37.5624 137.402 34.7382 138.483 31.9142 139.802C22.4391 144.152 12.4363 150.638 6.62989 158.785C-2.47567 170.519 -2.60765 189.661 8.76771 200.286C29.6181 221.432 62.9787 207.748 85.4127 195.461C87.2602 194.486 90.2426 193.194 90.0315 196.49C89.3981 202.053 87.8145 209.515 87.5241 213.628C85.703 229.026 85.7822 249.038 94.1224 263.329C104.257 281.285 128.407 285.978 143.979 271.265C160.685 254.602 160.764 228.71 159.075 206.799C157.808 194.565 158.152 194.776 167.891 201.763C176.521 207.643 184.386 212.257 194.389 216.186C210.198 222.566 230.838 224.623 244.193 212.441C255.753 202.976 254.407 185.6 248.072 173.076C243.691 164.375 235.879 156.518 228.146 150.849M30.0931 100.99L29.7237 100.594C26.4774 97.2459 24.181 93.0799 22.6503 89.3623C23.1781 84.8536 26.3718 78.1037 30.8322 76.6272C32.7852 76.2053 35.6356 75.7571 37.8262 75.968C40.4391 77.0491 43.923 76.97 46.9318 77.7082C52.5271 78.842 60.3922 83.0606 65.618 84.5108C66.3834 86.9629 70.5271 88.5713 72.6649 90.4169C81.401 96.7713 92.222 105.894 96.5505 112.011C97.1047 112.881 97.3952 113.382 97.8174 113.989C98.8996 115.623 100.008 115.386 101.829 116.81C103.492 118.286 105.603 120.369 106.817 122.4C109.509 126.908 102.463 125.616 99.9553 126.038C93.7265 125.748 84.5418 127.937 78.2075 126.46C74.9876 125.3 71.6093 124.245 68.3102 123.085C54.1372 118.234 40.7822 111.985 30.0667 100.99M104.073 154.962C103.492 156.307 102.753 157.863 101.987 159.075L101.776 159.418C96.313 165.825 87.2603 169.754 80.1606 174.605C73.7999 178.481 67.0961 182.225 60.3923 184.994C55.8527 187.077 52.8967 187.367 47.5125 188.843C39.5682 190.768 32.4157 190.715 25.6327 188.738C22.835 186.286 21.0932 182.041 20.275 178.376C19.5888 174.79 21.4363 173.182 22.9143 170.545C23.6005 169.517 24.3395 168.594 25.3952 168.04C27.3747 166.985 29.3806 164.217 31.492 162.767C34.8439 160.104 41.6796 156.492 45.4802 154.62C47.0638 153.855 47.4069 153.196 48.3307 152.695C49.0433 152.853 49.5183 153.117 50.574 152.932C55.6415 151.376 66.7002 148.397 72.4275 147.685C74.4069 147.421 75.4098 147.237 77.3629 147.632C81.7178 149.293 86.31 149.452 91.1135 150.111C95.5475 150.77 100.008 151.139 103.835 152.431C104.838 152.985 104.389 154.329 104.099 154.962M139.624 226.943L139.571 227.18C138.964 230.423 138.7 235.96 137.011 242.262C135.322 249.038 132.682 253.573 129.199 258.003C125.53 259.638 120.727 259.611 116.82 258.583C113.257 257.265 112.254 254.285 110.381 251.543C110.037 250.858 109.932 250.383 109.853 249.671C109.853 247.984 108.401 245.083 107.741 242.974C105.894 237.279 105.814 228.736 104.996 222.935C104.627 221.67 104.468 221.459 104.811 221.195C105.524 220.826 106.052 218.216 106.131 216.291C107.477 204.742 110.882 187.209 115.184 179.51C115.501 178.93 116.424 177.321 116.398 176.688C116.451 175.555 116.16 174.764 116.583 173.524C117.876 170.492 124.263 163.03 127.826 166.274C133.949 170.993 133.738 178.455 135.612 185.6C137.512 199.179 140.257 213.338 139.571 226.969M116.134 138.852C115.817 137.798 115.976 136.532 116.662 135.662L116.847 135.425C118.298 133.922 120.146 130.468 122.389 129.677C123.894 129.202 125.583 128.464 127.14 128.938C128.301 129.281 128.776 130.389 129.542 131.153C130.307 131.918 132.234 131.733 133.157 133.104C134.108 134.502 134.002 136.084 134.504 137.587C135.269 139.67 134.662 141.858 133.976 143.73C133.448 146.472 131.574 149.188 128.644 149.874C125.847 150.427 123.894 148.74 121.175 147.843C120.647 147.58 120.067 147.237 119.618 146.868C118.246 145.734 118.747 143.836 119.037 142.412C119.328 140.935 116.741 140.593 116.187 138.852M143.16 60.8864L143.081 61.0182C141.841 64.7359 142.237 71.6439 141.181 76.5745C139.835 84.9327 137.803 96.6922 135.084 102.651C134.504 103.785 134.187 104.365 133.791 105.42C133.237 106.975 134.028 108.03 133.712 109.744C133.289 111.457 131.02 124.324 128.46 120.923C118.985 109.585 114.709 95.0311 110.723 81.0568C108.718 73.7005 107.081 66.0278 106.738 58.5661C106.501 47.3339 109.14 33.9924 116.741 25.3442C118.034 23.6304 117.216 23.4985 119.011 22.6285C121.597 21.2838 124.685 20.651 127.404 21.1783C132.181 21.8375 134.372 26.6625 136.641 30.2748C137.037 32.2259 138.172 35.8117 139.386 38.2375C141.339 42.377 142.29 53.7937 143.319 59.1725C143.873 60.57 143.715 60.2535 143.187 60.9391M150.973 128.859C153.665 125.537 157.122 122.03 159.999 119.104C165.621 113.356 172.14 108.03 178.659 102.862C183.41 99.3025 188.028 95.743 193.201 93.0799C197.688 90.5488 201.093 89.1513 206.319 87.833C214.58 85.3545 223.87 84.5899 231.946 87.2002C233.266 87.543 233.556 86.8838 234.823 87.9385C237.885 90.2323 240.471 94.5037 239.89 98.3796L239.838 98.6697C238.914 101.913 236.908 104.154 235.087 106.817C233.504 108.32 231.973 108.874 230.363 110.851C225.19 116.652 216.111 120.949 209.618 125.089C209.09 125.01 208.457 124.693 207.031 125.168C195.814 128.754 182.961 133.816 171.269 131.628C165.172 130.389 158.732 131.681 152.398 131.417C151.263 131.364 150.524 131.153 150.339 130.652C150.181 130.23 150.445 129.598 150.999 128.859M231.999 193.932C229.676 200.629 224.688 200.761 218.644 201.157C217.589 201.209 216.876 200.972 215.899 200.629C214.474 200.102 211.941 200.023 210.172 199.865C203.284 199.1 194.257 195.04 187.923 192.904C187.501 191.137 183.093 189.212 181.219 187.789C171.031 180.854 159.023 171.784 153.929 164.718C153.243 163.874 153.243 163.742 152.583 163.136C151.448 162.187 150.682 162.53 149.495 161.475C148.175 159.814 146.011 156.281 148.782 155.753C157.096 155.068 166.65 153.275 174.806 152.932C181.879 153.512 188.847 155.674 195.524 157.335C202.967 159.761 209.644 162.556 215.794 167.328L216.19 167.618C222.154 171.916 228.278 178.165 230.917 184.967C231.26 185.917 232.105 187.393 232.474 187.71C233.187 189.371 232.421 192.403 231.973 193.932" fill="white" fill-opacity="0.3"/>
</svg>
