<svg width="20" height="20" viewBox="0 0 20 20" fill="none" xmlns="http://www.w3.org/2000/svg">
<rect width="20" height="20" rx="10" fill="#00746E" fill-opacity="0.1"/>
<path d="M10.6357 7.60352V15H9.36426V7.60352H10.6357ZM9.26855 5.6416C9.26855 5.43652 9.33008 5.26335 9.45312 5.12207C9.58073 4.98079 9.76758 4.91016 10.0137 4.91016C10.2552 4.91016 10.4398 4.98079 10.5674 5.12207C10.6995 5.26335 10.7656 5.43652 10.7656 5.6416C10.7656 5.83757 10.6995 6.00618 10.5674 6.14746C10.4398 6.28418 10.2552 6.35254 10.0137 6.35254C9.76758 6.35254 9.58073 6.28418 9.45312 6.14746C9.33008 6.00618 9.26855 5.83757 9.26855 5.6416Z" fill="#00746E"/>
</svg>
