<svg width="1920" height="1394" viewBox="0 0 1920 1394" fill="none" xmlns="http://www.w3.org/2000/svg">
<path fill-rule="evenodd" clip-rule="evenodd" d="M1893.6 530.76C1891.54 530.33 1885.36 530.18 1880.99 533.09C1877.07 535.73 1871.04 536.97 1868.71 537.68C1861.35 539.01 1858.53 537.75 1852.13 541.64C1849 540.24 1842.56 546.47 1840.73 545.13C1834.26 549.48 1833.78 555.06 1828.58 553.34C1823.02 556.72 1818.81 561.01 1814.76 562.01C1811.74 564.56 1806.54 564.4 1802.26 566.44C1796.53 565.42 1793.42 570.26 1788.17 571.88C1783.46 573 1781.05 577.11 1774.16 579.77C1769.68 579.5 1764.63 576.09 1758.31 578.35C1756.34 580.1 1753.62 588.27 1747.03 589.67C1744.38 589.09 1736.17 583.02 1733.95 583.71C1729.78 588.72 1724.62 589.46 1719.76 593.19C1716.35 595.68 1710.66 594.62 1707.75 596.23C1700.22 596.17 1696.94 595.86 1692.25 594.86C1687.1 596.2 1680.28 596.82 1677.54 600.12C1673 602.74 1667.97 604.91 1663.06 603.11C1659.99 604.98 1655.55 609 1652.34 609.84C1647.17 611.86 1642 610.24 1637.33 609.23C1631.99 612.21 1628.62 613.82 1622.37 612.97C1618.83 615.79 1612.37 615.5 1609.63 614.43C1603.72 614.75 1597.76 617.69 1594.89 618.28C1590.57 617.8 1583.54 623.95 1578.71 621.72C1574.77 621.85 1570.15 629.48 1567.9 629.82C1561.21 633.31 1557.79 629.9 1554.09 628.01C1546.24 629.2 1543.08 630.02 1536.71 632.44C1532.69 633.79 1528.13 632.97 1522.72 634.04C1520.7 636.96 1513.61 633.44 1510.7 634.88C1505.66 633.14 1499.57 638.2 1497.25 636.51C1491.21 638.06 1484.12 638.19 1482.4 637.17C1475.64 637.72 1471.98 635.99 1465.82 637.09C1461.09 637.63 1456.9 641.23 1453.2 644.92C1448.26 644.19 1442.4 640.1 1440.43 639.77C1433.82 640.69 1428.13 639.77 1425.07 639.87C1420.88 636.92 1415.28 649.95 1411.29 647.62C1406.18 649.62 1401.73 640.63 1393.68 643.72C1391.93 643.64 1387.24 648.14 1380.74 647.11C1376.34 649.1 1370.37 649.48 1369.14 652.47C1362.29 652.88 1355.67 642.99 1353.09 642.36C1349.32 643.25 1344.46 641.87 1336.51 644.38C1334.85 642 1328.4 645.72 1324.57 646.53C1317.83 645.95 1316.05 645.24 1309.55 643.47C1303.58 644.03 1301.21 643.24 1295.19 643.8C1290.5 643.92 1284.23 646.63 1279.69 646.47C1276.32 646.98 1273.12 653.86 1267.48 654.54C1262.29 655.09 1258.65 647.9 1251.57 647.92C1248.4 650.5 1243.94 652.55 1239.52 651.2C1232.59 651.84 1230.46 647.09 1225.67 647.2C1217.8 649.49 1212.61 649.77 1209.74 649.93C1206.47 652.09 1198.51 644.14 1194.67 644.41C1190.4 641.83 1187.42 644.15 1179.86 643.28C1175.43 645.55 1170.58 652.4 1168.47 651.99C1160.26 648.86 1155.69 642.92 1154.19 640.86C1149.94 640.11 1144.59 647.32 1139.71 646C1134.74 646.69 1127.48 646.44 1125.03 647.18C1119.33 647.54 1115.2 644.41 1110.26 642.4C1107.05 643.6 1099.38 645.29 1097.32 646.33C1090.46 644.08 1084.6 643.17 1080.44 644.09C1075.81 643.42 1073.14 646.55 1066.08 647.08C1060.45 645.68 1059.26 641.94 1053.82 640.42C1046.6 642.39 1042.13 641.85 1038.82 641.75C1033.78 641.04 1028.12 639.89 1023.95 636.63C1019.88 639.1 1015.63 637.7 1011.78 636.77C1006.59 634.51 999.76 641.58 995.69 641.46C991.78 639.83 985.37 639.95 979.53 639.42C975.78 637.34 970.32 631.03 967.83 633.08C960.61 633.18 956.46 631.62 951 633.15C947.79 633.52 944.73 631.92 938.54 632.7C934.58 633.58 928.11 631.34 924.39 629.75C917.68 626.68 915.04 628.95 908.59 626.19C905.56 628.09 898.87 633.14 894.6 632.12C890.39 631.91 886.74 628.35 879.99 628.26C877.04 630.47 871.86 627.54 867.77 628.02C863.83 625.89 858.8 627.98 851.02 629.15C848.12 629.22 844.8 631.56 838.69 628.74C832.87 629.23 830.05 627.15 823.15 630.76C820.43 630.21 812.72 620.14 809.9 620.86C806.06 621.19 800.45 623.73 795.29 624.62C788.48 624.13 784.29 627.57 780.51 625.26C777.54 628.1 770.66 627.88 764.12 626.27C762.48 627.51 756.69 630.61 752.61 628.12C747.87 627.77 742.74 628.92 735.86 631.32C730.99 632.55 726.75 635.39 723.99 634.74C720.59 638.93 713.92 635.01 708.89 638.16C704.83 636.73 698.92 633.97 694.86 633.37C688.14 636.75 686.07 641.74 680.53 642.23C677.44 643.1 670.53 638.89 663.74 638.11C660.3 641.58 656.57 649.22 654.78 650.38C648.67 649.8 642.28 644.53 639.79 644.8C632.49 648.81 630.89 652.24 626.33 653.15C621.17 652.61 614.88 652.38 611.33 654.1C603.56 652.01 600.86 657.8 595.92 657.98C590.46 657.54 588.18 666.32 585.83 668.68C580.56 668.39 575.22 666.8 570.35 669.3C564.16 671.47 561.4 672.71 555.18 676.45C549.99 676.28 546.97 674.38 543.07 675C535.99 680.24 531.44 680.49 529.99 683.97C525.61 687.08 519.47 687.56 515.92 686.84C509.48 691.87 505.78 689.83 502.63 693.62C498.28 694.98 495 697.4 488.98 701.06C484 701.03 478.07 702.17 473.98 706.29C468.88 708.34 471.26 716.05 466.86 718.64C461.76 720.36 454.2 717.18 450.73 720.27C445.23 719.46 440.15 725.21 438.92 724.57C434.96 727.85 432.48 734.23 427.84 736.76C423.46 741.03 420.9 743.57 416.3 746.81C410.28 749.11 404.39 744.43 401.69 747.17C397.46 750.53 396.8 758.36 390.19 761.14C388.84 762.59 385.68 765.94 378.52 771.86C375.09 774.13 370.55 770.04 365.23 775.67C361.77 775.64 354.77 777.23 350.37 782.03C347.12 783.98 341.73 785.69 338.64 787.85C333.85 790.14 334.74 796.26 329.62 797.77C326.23 803.71 326.86 807.5 320.48 813.3C316.64 815.11 313.1 817.8 311.33 823.28C307.21 825.18 299.82 825.65 295.81 828.6C293.88 830.44 287.34 830.12 282.46 833.84C281.31 837.24 280.78 847.12 279.97 848.8C276.45 852.34 267.65 851.98 264.34 856.14C261.35 857.83 253.3 860.46 249.54 860.5C247.26 863.7 243.44 869.75 241.97 871.02C236.87 876.77 238.12 881.87 232.58 885.01C230.05 889.3 225.11 889.8 222.7 894.46C220.3 898.64 220.16 903.46 213.7 909.26C210.97 912.4 202.73 909.88 200.71 914.12C197.94 917.79 192.3 917.99 188.35 924.07C186.15 925.31 184.91 935.38 181.96 939.55C179.08 940.72 178.19 946.29 175.76 952.54C174.14 955.55 160.44 950.8 158.84 954.1C154.1 958.5 155.51 967.19 154.94 969.84C151.78 974.37 143.51 974.41 142.51 976.99C139.59 983.41 132.86 983.39 131.82 988.54C127.57 991.96 129.57 1000.09 126.89 1004.9C126.58 1009.24 121.37 1012.48 117.68 1015.77C114.78 1019.67 110.9 1023.94 108.5 1027.41C105.92 1031.59 97.17 1030.25 94.01 1034.42C89.27 1037.36 92.74 1043.01 85.86 1048.87C84.62 1050.69 82.6 1057.28 78.65 1060.21C77.07 1063.71 73.26 1068.51 72.85 1071.79C69.57 1073.86 68.41 1082.3 62.54 1085.29C62.82 1090.24 56.74 1089.03 54.26 1094.54C48.74 1096.42 52 1105.39 47.01 1108.41C43.24 1112.99 40.1 1116.89 38.82 1121.32C35.3 1125.05 31.49 1125.33 28.47 1128.75C26.33 1133.04 16.62 1133.54 16.48 1137.38C11.35 1142.39 12.04 1148.93 9.96997 1154.67C9.76997 1154.96 5.58998 1159.09 -0.360016 1163.54C-3.03002 1169.2 -7.18003 1169.17 -9.12003 1174.71C-12.1 1176.79 -13.76 1182.25 -18.22 1187.34C-19.97 1191.2 -19.34 1198.54 -20.06 1202.64C-21.59 1205.05 -29.11 1206.42 -32.72 1211.5C-33.4 1217.4 -36.75 1221.58 -36.73 1225.37C-41.71 1229.83 -50.18 1229.27 -51.83 1234.08C-54.38 1238.15 -49.86 1246.34 -53.16 1250.39C-53.23 1254.49 -58.78 1256.07 -60.14 1261.53C-66.03 1266.36 -65.42 1271.8 -66.63 1274.95C-71.09 1280.25 -75.83 1281.85 -78.93 1282.82C-82.88 1287.77 -82.99 1291.79 -86.69 1298.39C-90.27 1301.08 -94.39 1303.01 -100.25 1306.21C-102.97 1312.15 -103.9 1315.6 -108.9 1318.86C-109.93 1323.9 -111.54 1329.61 -112.65 1330.71C-115.99 1335.01 -120.58 1338.86 -122.5 1344.87C-127.39 1347.15 -122.02 1356.47 -126.87 1359.9C-126.28 1364.3 -129.66 1369.3 -132.27 1371.72C-135.55 1376.96 -140.67 1379.57 -145.01 1380.87C-147.77 1387.86 -152.02 1390 -154.71 1393.75C-158.65 1392.48 -160.45 1391.99 -164.48 1388.05C-171.43 1384.06 -173.22 1381.93 -178.21 1379.8C-183.94 1375.33 -179.44 1370.19 -188.14 1367.74C-192.03 1365.64 -196.95 1367.33 -202.13 1366.19C-206.07 1362.32 -206.28 1356.5 -210.3 1353.52C-216.56 1347.66 -216.39 1347.28 -223.3 1345.31C-229.38 1341.82 -228.53 1341.37 -236.99 1338.2C-240.29 1333.02 -242.41 1337.15 -247.7 1331.12C-253.58 1329.15 -254.89 1329.72 -259.89 1322.72C-266.73 1320.62 -265.71 1316.78 -272.07 1314.98C-277.8 1308.99 -274.8 1307.56 -281.42 1303.57C-288.33 1300.24 -288.58 1305.46 -297.46 1298.77C-301.29 1296.28 -301.11 1296.28 -308.72 1291.14C-314.58 1288.47 -311.58 1282.3 -316.18 1279.37C-323.13 1273.58 -325.03 1280.27 -331.03 1277.46C-336.24 1270.16 -334.16 1268.07 -340.08 1261.03C-346.83 1259.46 -345.42 1260.48 -355.18 1255.19C-358.26 1253.24 -356.68 1247.73 -362.67 1244.4C-368.49 1242.69 -369.98 1243.12 -378 1241.85C-382.2 1236.94 -380.32 1231.9 -384.59 1230.88C-391.86 1226.87 -393.19 1228.03 -399.91 1225.39C-396.02 1219.6 -396.49 1218.01 -390.42 1212.65C-387.87 1210.04 -382.24 1205.63 -381.98 1204.16C-378.56 1200.05 -378.71 1192.39 -378.41 1189.9C-373.33 1185.63 -368.67 1182.05 -368.59 1175.75C-366.87 1172.09 -368.83 1166.92 -362.84 1162.97C-362.62 1157.51 -357.85 1154.64 -357.67 1151.43C-353.22 1146.47 -351.3 1143.36 -348.13 1140.15C-348 1135.61 -335.35 1133.46 -332.66 1130.67C-331.65 1128.17 -326.51 1122.78 -325.24 1120.66C-321.38 1117.31 -321.93 1112.77 -320.41 1108.31C-315.84 1102.54 -318.66 1097.33 -314.86 1090.77C-314.63 1088.17 -306.28 1087.98 -301.46 1081.98C-299.51 1079.19 -295.79 1076.22 -294.82 1069.32C-290.17 1065.88 -296.16 1060.48 -292.02 1054.22C-289.72 1051.28 -280.09 1052.54 -279.58 1047.24C-274.98 1044.98 -277.13 1036.36 -275.32 1031.47C-271.77 1029.58 -264.96 1027.54 -264.82 1022.06C-261.47 1017.74 -256.18 1013.62 -252.84 1011.66C-250.79 1005.25 -248.01 1005 -247.26 997.15C-243.19 995 -245 987.7 -243.06 983.36C-239.39 978.35 -231.2 979.93 -228.25 975.05C-227.86 970.05 -224.75 967.87 -222.71 962.05C-220.48 959.5 -218.51 955.1 -216.18 951.25C-212.92 946.25 -210.83 942.67 -205.95 938.52C-202.63 933.97 -200.74 932.73 -194.58 928.89C-192.39 922.63 -190.39 920.82 -187.2 914.96C-183.68 913.38 -180.84 908.56 -178.05 906.46C-175.15 899.56 -175.32 896.63 -171.36 890.76C-168.44 887.43 -162 888.79 -159.53 884.08C-156.18 880.24 -158.64 872.49 -156.47 867.61C-155.35 862.87 -148.16 861.26 -147.34 856.77C-145.28 854.2 -135.04 852.67 -134.37 848.96C-131.84 847.11 -127.36 841.12 -123.48 839.79C-118.54 834.07 -121.23 828.43 -118.12 823.2C-117.1 819.59 -112 818.98 -106.39 815.19C-106.02 808.6 -98.57 808.2 -95.65 804.84C-93.56 799.3 -94.32 793.67 -93.21 790.75C-88.46 785.35 -83.12 784.34 -79.8 778.64C-75.58 775.35 -73.19 773.5 -70.96 767.91C-66.63 765.26 -63.46 764.37 -59.96 759.39C-54.23 755.37 -55.32 751.42 -52.41 749.51C-48.88 742.41 -41.51 741.28 -39.84 738.84C-36.86 737.14 -35.77 729.66 -30.78 727.51C-29.27 722.68 -20.95 722.49 -18.54 720.56C-16.6 714.25 -10.45 711.12 -10.92 709.26C-3.69004 706.23 -6.10004 696.68 -3.20004 694.89C-2.09004 690.08 5.19998 686.46 8.03998 684.15C10.84 681.36 18.82 680.92 20.09 677.2C23.97 673.07 28.21 670.03 30.17 668.72C35.44 662.07 36.15 660.01 42.2 658.82C44.39 652.91 45.02 645.76 45.76 640.48C50.43 637.41 58.59 641.08 60.19 634.19C65.75 631.08 69.83 631.33 71.23 625.69C75.96 623.8 75.03 616.01 79.82 614.02C85.57 609.24 93.48 611.11 94.44 608.51C97.95 606.12 101.91 602.68 105.31 600.73C111.57 598.58 113.74 594.7 118.45 591.64C123.24 587.14 123.55 582.41 127.47 579.95C131.22 576.81 132.05 572.13 132.74 568.09C138.44 563.33 144.12 566.11 147.39 562.05C153.93 557.58 155.78 555.89 157.35 551.58C164.05 548.44 167.07 549.89 174.63 547.37C175.18 543.72 177.68 537.55 182.76 534.21C184.75 531.39 188.77 527.98 193.74 527.87C198.38 522.88 202.25 523.47 206.29 520.84C210.52 516.1 215.33 514.43 218.98 513.78C224.28 508.47 227.69 506.86 228.55 502.65C234.26 499.55 240.04 499.6 241.73 496.16C246.44 494.55 254.9 493.79 256.73 492.16C262.57 492.44 262.09 485.37 266.33 482.53C270.52 479.88 275.06 477.35 276.7 471.23C283.73 471.99 288.33 471.71 290.85 466.86C295.89 464.51 299.33 465.85 305.1 462.7C310.07 459.46 312.79 456.75 314.8 453.38C319.49 448.33 327.25 453.08 332.49 450.82C335.7 445.6 338.47 445.7 345.19 442.34C347.52 441.63 353.18 438.21 356.26 439.03C362.51 434.58 364.51 431.04 366.97 429.3C374.75 425.38 375.11 424.12 382.28 422.77C387.13 422.09 391.09 419.16 393.28 417.99C397.19 415.16 402.3 408.59 407.14 404.94C410.95 405.17 415.53 408.76 419.96 405.21C424.18 405.25 431.35 404.13 433.24 402.58C439.35 398.47 443.68 398.2 447.45 395.73C451.47 392.91 454.36 385.83 459.63 385.43C463.07 383.36 467.14 383.05 471.52 381.7C478.31 379.24 480.52 378.88 484.78 378.59C491.8 376.47 494.5 377.9 502.16 377.51C506.22 375.58 508.16 372.58 513.38 369.61C518.3 367.62 522.5 364.16 527.36 364.66C529.91 360.16 537.98 367.56 544.89 367.34C548.56 364.68 549.24 356.78 555.05 357C559.85 353.13 564.89 356.62 568.32 354.09C572.57 352.92 580.95 355.34 583.73 352.25C588.8 350.05 593.88 347.92 595.47 348.9C601.97 344.55 607.06 344.22 611.29 344.05C613.97 342.04 619.33 343.76 627.32 340.02C631.19 342.56 637.24 348.97 639.08 346.18C645.78 344.18 649.33 337.47 653.86 338.19C660.4 336.55 662.85 340.46 668.27 337.88C674.3 339.21 676.74 339.88 684.39 339.25C687.33 337.01 693.68 334.43 698.61 334.71C701.44 334.81 704.72 329.71 710.6 331.3C716.24 329.2 721.44 331.42 724.14 330.97C731.49 330.63 735.66 335.28 738.91 334.84C742.5 333.24 748.94 322.6 751.42 324.25C759.53 323.56 765.23 333.16 768.24 330.65C770.99 330.97 777.13 327.97 783.81 325.49C787.32 328.57 790.35 327.73 797.43 324.17C802.57 326.52 804.31 328.93 809.08 329.61C813.79 328.38 819.57 324.73 825.5 324.54C829.65 324.6 834.19 326.44 837.69 326.94C845.72 325.92 848.33 325.33 854.54 325.98C856.93 328.27 863.72 328.02 866.14 327.63C872.72 329.97 876.61 331.4 883.29 330.89C885.01 329.59 892.27 330.85 897.58 331.44C900.94 332.28 907.24 327.63 909.18 329.61C917.02 330 919.34 325.59 926.05 328.33C929.74 327.62 933.9 334.46 938.53 335.63C945.68 335.32 947.71 330.42 952.29 328.49C957.4 329.44 964.28 330.63 969.37 332.02C971.39 331.02 979.39 335.82 981.29 335.23C987.64 336.23 991.19 335.74 995.09 336.84C1001.39 335.77 1005.16 336.41 1009.69 334.55C1015.89 333.45 1019.92 335.17 1023.46 338.35C1030.99 337.78 1036.32 339.83 1038.12 343.2C1043.36 341.07 1049.97 345.71 1052.86 343.57C1058.07 343.57 1063.75 344.68 1069.27 345.56C1070.54 344.72 1077.03 345.19 1082.38 348.68C1085.92 345.77 1090.89 342.79 1096.74 342.75C1100.68 342.94 1104.89 345.35 1112.19 347.33C1116.81 343.94 1118.79 342.78 1126.07 340.41C1128.93 343.39 1134.25 343.49 1140.57 345.38C1144.46 345.04 1148.3 345.85 1151.99 342.74C1159 345.26 1163.99 343.76 1167.78 345.94C1173.85 345.17 1175.65 350.52 1183.09 350.81C1188.7 348.24 1191.67 345.5 1196.97 343.22C1200.36 345.34 1207.91 345.08 1211.44 344.62C1215.72 345.25 1221.3 346.57 1226.6 346.02C1228.81 348 1235.85 348.08 1239.71 346.58C1242.33 346.75 1249.56 351.78 1253.17 354C1257.22 351.43 1262.42 346.37 1266.89 348.47C1274.02 348.7 1276.83 346.23 1281.17 343.5C1288.16 344.86 1290.66 350.09 1295.62 350.85C1301.2 351.01 1307.5 346.73 1311.88 349.32C1317.25 348.63 1322.28 354 1327.16 352.69C1331.83 350.41 1333.05 348.8 1339.52 348.47C1345.49 347.48 1349.75 343.68 1353.93 343.25C1359.05 341.68 1361.97 343.51 1369.87 341.71C1372.39 342.72 1376.26 344.12 1383.07 342.53C1387.15 343.5 1393.1 340.58 1396.72 341.95C1403.27 338.4 1405.99 341.04 1412.27 337.53C1415.26 338.36 1418.77 338.12 1425.83 338.83C1430.5 336.82 1433.22 339.02 1437.56 339.6C1444.33 337.6 1447.76 342.93 1455.22 340.87C1459.42 338.69 1461.33 334.21 1467.07 333.55C1471.43 336.35 1478.29 336.72 1480.99 338.84C1486.16 337.62 1493.63 339.75 1497.59 337.58C1502.3 339.4 1503.95 331.08 1510.75 326.96C1515.47 327.62 1522.23 332.79 1523.38 332.08C1529.42 330.14 1533.97 325.14 1536.89 324.1C1544.72 323.7 1548.1 321.51 1553.05 320.65C1557.66 319.75 1562.93 318.57 1567.86 317.34C1570.36 315.96 1575.21 316.4 1580.77 316.4C1585.49 315.85 1588.68 315.65 1595.24 312.04C1600.44 311.27 1604.64 311.22 1608.36 312.32C1612.57 311.3 1615.67 307.79 1620.73 305.19C1627.52 305.44 1630.25 303.92 1635.12 302.62C1640.38 302.19 1645.59 305.47 1652.1 305.8C1656.85 303.47 1658.64 293.25 1664.89 292.16C1669.44 293.93 1673.55 288.58 1677.16 288.42C1681.03 288.14 1687.41 286.49 1691.61 285.9C1696.5 285.55 1697.23 281.19 1702.32 278.78C1709.5 277.75 1713.53 275.24 1717.93 276.85C1720.07 272.61 1725.62 271.12 1729.27 268.82C1736.67 268.44 1740.55 269.02 1746.82 266.95C1748.33 265.16 1753.43 265.89 1758.89 261.91C1763.41 259.88 1762.89 252.08 1767.17 251.28C1772.34 249.27 1775.22 242.44 1779.42 242.56C1783.9 240.29 1788.66 237.56 1790.38 236.75C1796.17 232.73 1804.34 236.78 1807.25 233.43C1810.14 228.36 1813.29 229.37 1820.14 227C1822.39 221.82 1820.52 214.04 1826.37 209.95C1828.82 207.51 1833.6 206.47 1837.35 204.56C1839.31 200.84 1845.64 196.68 1846.13 194.36C1850.18 192.84 1858.71 193.89 1862.66 192.04C1864.58 187.01 1871.27 187.36 1875.07 183.21C1877.49 178.65 1878.82 170.98 1880.94 167.86C1884.24 166.08 1892.75 167.96 1892.82 162.79C1896.94 159.03 1899.3 154.44 1902.2 150.71C1903.59 148.74 1911.13 146.32 1912.56 144.88C1918.28 140.09 1920.35 138.12 1926.03 136.27C1926.7 133.6 1931.94 129.07 1933.7 126.39C1937.17 124.12 1938.15 114.89 1940.87 111.83C1943.42 111.16 1951.6 109.74 1955.26 106.48C1960.37 104.52 1959.17 99.5503 1964.18 97.3503C1967.77 90.8203 1968.93 87.6103 1972.64 83.3303C1974.54 79.6203 1978.6 77.5103 1981.51 74.8703C1986.06 73.2903 1987.78 67.8303 1989.92 63.1503C1994.89 62.1703 2002.92 64.3803 2008.96 62.9303C2011.52 60.2203 2013.42 53.6203 2013.97 48.3703C2017.05 45.7903 2021.69 39.9303 2024.59 38.7203C2028.01 34.9803 2030.61 33.3403 2035.48 30.7403C2036.87 27.0103 2044.78 27.5903 2046.04 22.2503C2053.17 19.6703 2058.5 20.0803 2062.23 16.7803C2064.72 12.8703 2067.55 13.1203 2071.01 10.1503C2075.9 5.85031 2073.4 1.42031 2078.84 0.0703125C2084.46 5.45031 2083.91 1.67031 2087.86 7.40031C2093.48 13.8103 2093.96 13.8503 2098.61 20.1903C2103.76 24.6903 2099.41 27.2603 2102.06 33.3503C2106.63 39.8603 2113.4 36.4103 2117.92 41.8103C2118.81 45.1603 2114.84 51.9603 2116.11 59.6403C2120.35 62.7603 2124.4 60.2503 2129.36 65.3803C2132.35 70.2803 2136.66 69.2003 2140.16 77.0903C2143.63 81.8103 2137.53 86.7703 2140.17 94.6503C2147.46 98.6103 2145.87 99.7603 2148.88 105.29C2154.49 110.58 2159.78 109.1 2161.84 115.67C2164.79 119.24 2161.58 120.86 2165.64 126.87C2171.4 134.97 2172.58 133.99 2175.45 138.31C2177.54 143.35 2186.25 140.19 2188.5 147.96C2195.78 151.43 2191.93 152.7 2198.74 158.56C2202.52 165.69 2201.22 166.66 2205.58 169.42C2207.35 176.19 2208.95 177.38 2212.03 182.82C2214.49 191.08 2213.28 191.45 2215.41 199.71C2221.83 202.23 2223.18 199.84 2226.61 208.55C2233.28 214.51 2229.1 212.77 2236.33 219.6C2240.95 224.16 2243.23 222.5 2244.9 231.5C2251.09 234.9 2249.25 237.14 2249.35 241.55C2245.25 244.98 2247.09 250.52 2243.87 255.14C2237.33 257.26 2231.3 255.34 2226.04 257.12C2220.52 258.08 2220.8 266.86 2215.75 270.25C2213.8 274.72 2210.72 277.98 2207.99 280.52C2201.87 284.77 2198.51 286.82 2194.6 289.74C2192.18 293.47 2187.12 296.07 2183.6 300.38C2178.54 303.52 2178.63 307.1 2173 311.44C2168.61 314.71 2167.38 316.16 2162 319.74C2158.85 325.53 2155.63 328.67 2152.88 334.63C2149.08 336.27 2144.79 339.17 2142.34 344.97C2138.64 346.38 2129.93 344.33 2125.75 348.86C2125.28 352.44 2120.7 357.75 2114.2 359.99C2113.68 361.64 2108.39 363.61 2104.32 370.26C2099.61 370.96 2099.81 377.31 2095.92 381.06C2093.61 382.83 2085.57 387.83 2083.45 390.96C2080.27 394.04 2075.91 394.57 2071.46 398.39C2068.3 402.15 2069.61 410.77 2066.7 412.4C2060.67 415.94 2052.61 414.45 2050.7 416.78C2044.33 420.75 2045.98 430.25 2043.58 431.88C2037.32 433.58 2031.58 431.11 2025.53 433.51C2022.9 440.17 2023.79 447.74 2019.73 449.94C2015.29 450.75 2010.49 457.87 2009.64 460.11C2004.88 461.83 2000.7 465.18 1994.2 465.9C1989.14 469.65 1981.21 467.69 1978.46 468.36C1973.28 472.84 1972.51 475.18 1968.93 478.35C1962.43 480.57 1961.31 486.81 1957.47 491.44C1951.54 491.15 1947.98 494.57 1945.98 497.78C1939.3 502.76 1935.16 498.71 1930.09 502.59C1926.68 502.26 1921.25 507.3 1920.02 510.18C1913.73 513.42 1909.58 513.25 1905.33 515.31C1899.74 517.66 1900.59 528.24 1893.68 530.82L1893.6 530.76Z" fill="#00746E" fill-opacity="0.1"/>
</svg>
