<svg width="1884" height="1305" viewBox="0 0 1884 1305" fill="none" xmlns="http://www.w3.org/2000/svg">
<path d="M4.84994 155.979C4.88994 149.279 -2.05006 143.699 0.599944 137.249C4.52994 131.319 2.66994 123.709 5.81994 118.999C9.78994 110.999 18.8399 108.479 21.4599 105.649C28.1299 99.8991 33.9699 97.9391 41.9199 95.8591C44.5799 93.6091 50.5799 90.4991 57.8399 88.9491C65.7799 89.6491 65.7 87.4691 74.8699 87.4591C86.49 89.3891 86.4299 91.2491 96.4799 87.7991C105.32 88.1691 105.21 94.5091 112.77 96.6791C123.31 96.3391 120.84 88.7591 131.74 86.3691C139.84 84.2891 139.52 81.2491 146.88 79.7491C157.18 78.4691 157.75 81.7391 164.69 82.7991C177 83.3591 176.89 89.5891 185.86 89.6491C193.82 86.8591 193.29 83.5991 202.36 82.0591C209.98 83.7091 210.84 89.2591 220.37 91.4891C228.89 88.6891 228.92 80.6791 237.04 80.4391C246.85 82.2891 247.79 87.8291 255.6 88.0791C266.43 88.7291 264.2 78.8491 273.6 75.1391C284.22 76.5091 283.99 77.4691 290.97 77.4591C301.89 77.0191 301.04 81.9491 309.71 83.5191C320.21 80.9491 319.16 85.0691 329.75 81.9691C338.45 84.0691 335.36 75.3391 344.07 73.9491C355.87 74.6391 353.22 73.2691 363.7 73.3691C371.71 70.4091 372.99 71.5491 380.41 74.6391C390.63 71.6391 389.93 82.0791 399.86 80.8291C407.98 78.9691 407.14 70.3891 415.76 69.4791C426.48 69.5691 425.11 79.3991 433.78 78.8891C446.25 77.6291 445.16 74.1491 451.38 74.7891C461.16 72.3191 460.33 73.9491 469.4 74.1191C478.34 72.6391 478.67 75.3591 487.75 75.1291C497.76 74.8291 498 71.3691 508.39 72.1291C515.75 68.4291 514.89 69.3191 524.27 71.7591C533.46 69.7491 532.71 72.8891 542.79 73.2591C551.3 72.2391 552.43 68.4791 562.04 65.5591C567.67 67.5791 571.69 71.3791 578.78 72.8491C589.18 69.5191 587.75 62.3391 594.78 59.0791C604.72 61.1791 605.61 62.6491 615.95 61.0691C621.93 62.9691 624.28 67.9991 631.05 68.0691C640.2 66.7591 642.54 65.8991 649.73 64.9591C659.94 63.8791 659.34 59.8791 669.81 59.7791C675.04 56.8691 678.33 56.7791 685.26 57.2791C695.76 54.4391 693.08 56.8291 704.56 57.3291C714.52 58.5491 714.8 65.2891 721.25 61.4291C731.79 64.3091 729.1 57.4591 740.69 58.0291C746.89 54.4991 748.56 61.2391 757.46 60.1291C766.96 58.9291 765.6 57.6291 776.02 56.5391C785.54 56.3191 784.62 48.3891 794.98 49.9091C801.55 47.8891 802.92 56.7491 813.14 56.4991C821.35 59.2291 820.08 51.5091 829.82 50.7291C838.76 52.5291 838 51.3491 845.39 50.1591C857.05 48.0491 854.7 45.0991 863.22 44.4691C872.32 44.4691 874.43 53.8591 883.92 52.8491C893.02 54.9791 892.98 50.4591 900.73 49.9491C910.28 48.8291 910.78 42.4691 919.51 43.2691C928.27 42.4991 927.99 47.4491 936.97 45.8091C945.81 45.5191 946.25 42.5891 953.47 43.0391C964.86 42.4791 963.67 43.6291 974.02 40.9191C981.09 42.0691 983.48 45.8291 992.09 42.4791C1000.17 44.8191 999.72 42.2991 1008.38 39.0391C1017.04 38.8291 1015.91 45.7591 1027.24 44.8191C1035.82 45.4991 1036.79 37.7191 1043.31 34.5791C1051.85 33.5291 1052.74 40.3091 1063.21 39.7791C1073.13 39.1991 1070.72 38.0891 1078.38 37.5791C1090.17 37.0191 1087.45 34.7591 1098.6 33.3991C1105.99 33.2791 1107.36 43.1791 1114.5 39.3691C1127.01 41.9291 1125.42 34.0291 1133.83 31.8591C1143.78 30.8891 1143.72 40.8691 1151.46 40.3391C1161.62 43.5191 1161.61 40.0791 1170.43 40.0891C1180.4 41.9291 1179.23 32.6191 1188.61 30.8691C1197.9 33.8091 1195.41 30.7391 1203.9 28.5791C1213.3 29.4391 1213.45 30.1191 1224.03 28.6291C1232.59 30.2391 1230.91 29.3591 1241.62 26.5191C1249.84 27.3591 1251.07 31.8491 1260.13 29.8891C1269.36 30.4091 1269.41 23.8291 1275.57 25.1891C1284.93 23.6991 1287.29 33.3191 1295.54 29.8491C1304.49 30.0091 1302.47 25.5291 1313.18 26.8291C1323.14 26.2791 1323.63 25.5891 1332.68 23.2791C1339.64 21.1891 1341 29.4991 1348.65 29.5191C1357.63 27.6991 1358.27 25.9591 1367.76 26.6491C1374.43 26.4691 1376.9 17.4291 1386.58 18.4691C1391.82 17.6991 1396.23 30.1691 1403.84 27.8391C1413.45 28.4991 1413.94 25.8291 1421.24 27.2591C1429.02 24.7391 1428.67 22.0391 1438.88 20.5591C1449.61 22.4591 1447.25 23.8991 1458.06 22.4091C1466.65 21.9091 1464.59 15.7691 1475.41 15.6091C1484.51 13.6291 1483.3 13.1291 1492.24 12.4091C1500.06 12.5391 1501.31 19.5191 1509.02 18.5291C1521.03 19.3091 1519.14 19.3191 1530.08 16.8091C1539.31 16.8991 1538.82 14.1191 1547.7 12.7191C1554.07 12.4191 1553.68 20.1091 1564.98 19.5491C1573.03 18.3091 1574.06 15.9291 1581.26 13.6991C1592.83 14.3591 1591.84 15.7091 1599.84 15.1891C1609.16 15.2691 1607.33 12.2691 1619.88 12.3091C1627.52 12.8991 1628.22 5.79906 1637.58 3.91906C1644.04 5.51906 1645.61 16.5091 1653.7 14.6391C1662.54 14.9591 1662.76 3.49906 1671.12 3.40906C1681.41 3.98906 1682.34 14.8191 1691.84 15.8491C1700.47 13.3791 1699.3 11.1491 1707.01 11.1091C1717.42 10.3991 1718.07 2.24906 1724.45 2.52906C1734.38 4.36906 1734.02 3.95906 1744.24 0.139063C1751.21 -0.430937 1751.12 8.46906 1759.78 4.82906C1770.65 6.86906 1770.92 4.52906 1780.9 4.71906C1787.71 4.30906 1788.72 3.89906 1797.79 2.27906C1805.61 1.67906 1804.46 1.37906 1815.41 1.25906C1822.11 -0.590937 1827.25 0.499063 1832.25 0.0390625C1838.68 2.88906 1843.76 5.32906 1847.77 11.1991C1852.13 12.5291 1862.21 11.0491 1865.63 17.1791C1867.25 21.5291 1867.11 30.6291 1871.35 32.7891C1872.78 37.9391 1869.11 45.7991 1871.54 49.3091C1871.27 56.9991 1873.43 60.2991 1872.14 64.8291C1874.85 75.5491 1876.52 75.4691 1875.72 84.7591C1872.25 94.3391 1872.26 93.0591 1873.54 101.719C1873.15 108.919 1880.53 110.889 1883.22 119.039C1881.76 129.109 1880.86 130.829 1881.73 139.029C1881.4 149.029 1873.6 148.659 1871.89 157.649C1875.38 165.799 1878.52 163.369 1879.93 174.569C1879.62 183.959 1874.33 184.859 1873.39 193.319C1870.44 201.719 1866.85 199.889 1865.93 207.999C1867.61 217.269 1877.15 217.939 1876.07 229.559C1873.28 236.669 1876.47 235.939 1873.8 247.189C1876.22 253.989 1863.39 255.239 1862.17 262.429C1861.88 273.089 1870.75 272.649 1871.21 284.179C1870.54 291.379 1863.87 292.239 1862.44 298.379C1863.34 310.589 1870.48 309.719 1871.47 318.659C1870.16 326.259 1863.34 325.939 1861.76 338.219C1861.67 346.529 1863.3 344.429 1862.77 354.169C1863.1 362.279 1868.89 363.279 1868.8 373.509C1867.01 383.309 1861.33 380.989 1861.13 392.269C1861.71 400.199 1858.55 398.059 1856.94 409.499C1855.51 418.249 1863.5 416.499 1862.77 428.019C1862.47 436.699 1852.74 433.709 1854 445.139C1855.4 452.669 1864.29 452.629 1864.28 464.909C1863.9 471.629 1853.08 470.269 1852.52 481.549C1852.92 489.609 1853.76 489.969 1854.77 499.129C1852.83 507.869 1861.57 509.329 1860.43 517.569C1860.1 524.689 1855.04 526.939 1852.99 536.039C1854.06 544.419 1858.15 543.339 1857.11 551.859C1859.23 563.659 1856.01 563.839 1857.21 572.519C1853.08 578.519 1843.59 577.739 1844.92 589.029C1844.25 598.149 1850.07 599.409 1845.73 605.539C1847.88 615.139 1844.1 616.629 1843.47 625.599C1844.18 633.309 1847.79 634.329 1844.9 642.269C1844.57 653.069 1844.92 650.789 1844.93 659.219C1841.03 668.869 1845.88 668.369 1845.92 679.569C1848.2 689.619 1847.87 688.589 1848.37 699.349C1850.07 705.809 1841.46 706.239 1837.61 716.959C1837.94 725.819 1846.3 725.739 1845.62 731.609C1845 740.749 1845.71 741.509 1844.03 753.129C1845.39 760.329 1844.65 760.919 1844.64 768.389C1844.02 778.819 1837.08 778.619 1838.31 787.499C1837.61 795.539 1837.51 794.639 1836.67 803.909C1837.08 813.009 1837.66 814.849 1839.09 825.179C1837.05 832.169 1834.37 831.719 1831.97 842.909C1833.03 849.349 1844.45 849.739 1844.56 858.239C1843.46 867.319 1842.74 867.449 1840.03 876.389C1840.66 885.239 1831.39 887.499 1830.74 897.549C1830.41 904.189 1833.51 903.259 1833.16 914.939C1832.5 921.459 1834.55 921.219 1833.42 933.189C1833.92 941.529 1834.54 939.289 1834.24 948.189C1834.1 958.489 1835.05 961.039 1835.56 966.419C1832.8 975.779 1835.48 976.269 1834.85 987.769C1831.16 996.399 1826.07 994.599 1825.21 1002.71C1828.02 1011.31 1836.75 1013.08 1835.67 1021.11C1836.22 1031.76 1827.65 1029.34 1826.82 1040.25C1825.73 1047.38 1823.46 1049.45 1824.74 1058.59C1824.62 1068.01 1833.2 1066.99 1832.82 1077.34C1832.98 1087.06 1828.4 1084.84 1828.93 1094.02C1829.02 1105.23 1828.58 1102.58 1827.34 1112C1827.96 1123.44 1827.2 1122.18 1824.73 1132.28C1824.67 1141.28 1822.52 1140.17 1823.87 1146.98C1820.69 1155.42 1825.8 1161.47 1825.75 1166.16C1823.19 1172.76 1812.96 1175.96 1809.29 1179.49C1806.55 1183.2 1808.07 1195.77 1804.2 1200.33C1796.7 1202.45 1788.83 1196.5 1780.87 1199.9C1776.53 1201.13 1770.96 1205.11 1765.62 1204.09C1758.22 1206.51 1759.46 1209.54 1747.67 1210.78C1739.12 1209.94 1741.24 1212.77 1731.05 1214.32C1723.33 1212.5 1723.16 1206.46 1711.55 1207C1705.47 1206.44 1705.1 1210.72 1696.13 1214.93C1685.69 1214.18 1684.73 1204.62 1678.53 1206.98C1666.31 1207.29 1666.33 1213.9 1658.71 1216.83C1651.98 1217.29 1651.07 1210.39 1639.66 1213.55C1632.54 1211.37 1630.37 1220.01 1622.55 1217.03C1615.36 1218.16 1615.27 1212.95 1604.76 1212.24C1594.79 1216.27 1595.97 1213.49 1586.05 1212.12C1577.67 1215.52 1578.13 1216.83 1567.66 1218.75C1558.59 1220.51 1561.54 1220.29 1550.67 1217.52C1540.62 1218.47 1542.07 1223.3 1533.38 1224.65C1523.82 1225.22 1523.7 1219.69 1514.71 1219.97C1505.82 1219.55 1506.44 1223.87 1499.23 1226.19C1490.38 1225.88 1487.89 1218.4 1479.06 1217.58C1472.05 1217.75 1468.61 1217.88 1461.33 1220.62C1451.79 1220.84 1452.31 1221.38 1441.5 1222.66C1432.54 1224.19 1435.52 1222.66 1426.08 1219.94C1418.01 1220.35 1418.02 1231.11 1407.14 1232.24C1397.71 1233.81 1399.6 1228.1 1391.6 1226.74C1382.62 1230.77 1380.37 1221.89 1373.27 1225.84C1363.74 1224.31 1362.33 1226.9 1353.38 1228.23C1342.65 1228.12 1343.46 1225.27 1337.28 1227.53C1325.54 1225.54 1328.91 1236.15 1316.54 1237.55C1307.29 1236.08 1308.13 1237.05 1301.23 1235.7C1289.75 1236.76 1291.68 1229.96 1283.52 1230.61C1274.51 1234.56 1274.53 1235.58 1264.98 1235.45C1253.74 1236.6 1254.4 1235.23 1244.05 1235.85C1236.28 1238.39 1238.11 1233.99 1229.88 1236.91C1218.43 1235.08 1219.95 1237.51 1209.22 1240.79C1200.24 1239.85 1202.65 1244.64 1191.54 1243.15C1183.69 1245.38 1183.36 1234.39 1174.38 1237.7C1166.65 1235.56 1164.74 1243.3 1155.07 1243.87C1145.51 1241.47 1146.35 1237.56 1138.15 1234.76C1129.75 1237.84 1128.67 1240.98 1118.82 1244.05C1111.03 1244.87 1110.12 1240.98 1101.17 1242.93C1093.3 1243 1092.04 1241.37 1085.97 1242.23C1076.84 1245.09 1075.49 1239.98 1064.89 1240.44C1058.46 1240.41 1056.07 1251.37 1048.76 1251.29C1041.32 1252.83 1039.67 1252.55 1030.39 1255.23C1022.17 1252.48 1020.93 1245.63 1012.86 1247.19C1004.39 1249.09 1002.37 1245.31 993.28 1244.63C983.88 1247.23 985.71 1248.03 976.52 1246.06C967.53 1248.91 968.3 1253.25 960.39 1250.65C948.54 1251.39 948.53 1251.13 938.75 1251.26C930.12 1251.12 933.91 1260.89 923.36 1263.24C914.81 1262.72 913.9 1251.97 902.95 1254.1C894.69 1255.87 894.62 1262.41 888.27 1262.32C877.66 1262.19 876.21 1257.51 867.77 1258.33C858.66 1258.15 860.55 1264.16 852.29 1266.75C842.49 1268.23 840.7 1261.98 833.28 1263.74C822.89 1262.39 823.06 1268.74 816.77 1266.72C805.88 1267.48 805.24 1264.69 797.28 1262.47C789.63 1262.04 786.52 1265.12 778.04 1264.75C770.59 1265.36 770.57 1260.04 760.02 1260.54C750.37 1258.43 752.39 1259.48 742.16 1261.05C734.79 1262.05 734.75 1262.31 724.15 1264.54C716.18 1264.89 717.82 1265.9 708.72 1263.66C698.73 1264.43 699.96 1264.54 689.12 1265.51C679.96 1266.24 681.32 1271.85 671.23 1270.73C662.44 1271.21 662.63 1273.17 654.03 1274.71C646.51 1274.28 643.54 1277.32 637.28 1277.44C627.46 1277.92 627.35 1270.63 616.21 1272.69C607.6 1270.66 607.93 1268.78 600.05 1269.25C588.4 1269.3 591.25 1275.99 583.47 1274.38C574.25 1277.98 574.63 1280.53 565.68 1283.31C556.67 1282.97 554.67 1272.51 546.52 1276.51C538.44 1275.25 538.74 1283.32 526.5 1282.77C520.49 1283.14 517.16 1275.4 509.98 1273.25C500.78 1273.76 499.85 1285.36 490.18 1286.25C481.16 1284.61 481.25 1283.27 475.1 1280.79C463.36 1284.02 465.97 1286.52 454.78 1286.06C445.59 1286.63 446.26 1286.58 439.6 1289.13C431 1289.95 427.49 1291.65 420.43 1294.43C411.93 1293.92 413.03 1293.13 402.51 1294.06C394.92 1293.51 395.2 1290.74 382.58 1289.99C375 1291.03 375.57 1282.75 364.99 1282.55C355.74 1284.77 355.64 1291.39 347.18 1291.53C338.17 1291.14 338.33 1289.63 328.86 1290.93C321.6 1290.93 320.68 1289.31 311.66 1289.27C301.31 1291.47 302.6 1288.4 295.25 1289.08C285.75 1287.45 286.03 1295.38 277.39 1293.47C268.63 1297.15 268.92 1298.36 257.36 1297.88C247.63 1296.64 247.59 1294.66 241.55 1296.69C230.34 1295.9 231.89 1290.84 222.75 1290.04C214.86 1293.65 215.24 1298.79 202.94 1300.1C194.55 1299.86 193.86 1294.23 186.44 1293.72C177.39 1293.45 176.56 1301.29 169.41 1302.32C159.26 1303.06 160.14 1297 148.72 1296.4C144.38 1297.99 137.2 1306.18 131.48 1304.34C125.69 1304.05 120.61 1294.79 117.09 1288.16C110.65 1286 102.02 1288.71 100.75 1283.14C94.5599 1277.62 91.7999 1269.87 89.7599 1266.04C87.52 1258.63 83.3599 1253.43 81.0699 1247.51C80.9999 1238.46 83.8499 1238.73 85.3999 1231.12C85.1099 1220.66 91.8999 1218.33 87.91 1209.15C87.9999 1203.79 79.3599 1203.16 77.8199 1195.75C74.5399 1185.83 75.6899 1186.7 75.3099 1177.06C73.7999 1169.16 76.9699 1165.16 77.0599 1156.77C75.1599 1149.69 83.5099 1148.66 85.8899 1139.63C83.6799 1129.73 74.8599 1132.59 72.8899 1122.07C73.3499 1113.39 83.6099 1113.12 82.4499 1104.63C81.9599 1096.52 76.4299 1094.76 74.0799 1087.19C75.41 1077.28 74.2499 1078.47 74.4599 1066.46C74.0099 1061.32 71.0399 1059.66 68.3099 1050.86C66.9699 1040.92 65.2199 1040.72 66.2899 1034.1C66.3299 1025.41 74.7899 1021.67 71.8999 1016.2C71.4699 1006.85 69.35 1004.82 68.9799 995.829C68.63 986.199 68.1099 987.459 69.7199 978.339C70.3499 970.919 67.4899 971.049 65.9899 961.819C66.1799 952.809 58.3499 954.089 55.9099 945.379C57.2899 936.109 63.38 933.929 64.5499 926.899C64.1799 915.009 67.24 917.409 66.66 907.869C67.92 898.959 62.1499 897.949 61.0499 890.829C58.4999 880.749 60.8399 879.919 61.5399 870.889C59.5199 860.709 61.9099 862.869 61.1299 853.749C59.5899 846.039 51.0499 846.429 49.3899 838.219C50.5599 826.709 56.1199 826.309 55.1899 819.789C52.0599 808.039 57.7999 807.359 58.9999 801.169C58.4899 792.609 57.2399 792.399 54.5899 782.239C57.4299 772.899 49.1799 773.359 46.8199 765.119C45.8499 756.269 56.5799 753.199 54.7699 746.279C56.1099 736.269 41.8299 738.559 42.9099 727.699C42.0699 719.639 48.7799 720.309 48.4499 711.559C49.8699 700.769 49.0699 703.149 49.7399 692.589C49.4899 682.189 45.6799 684.669 44.8699 673.659C46.7099 667.459 41.7899 665.679 41.8599 658.209C39.5299 647.479 40.2899 649.489 38.5699 638.369C37.6299 629.299 42.3899 631.719 45.5599 620.909C44.3699 612.269 39.3599 611.149 37.4799 604.609C37.1499 596.319 41.3699 593.039 39.3799 583.939C38.7099 575.609 29.1899 578.729 29.7399 567.729C28.8299 558.319 31.0099 559.599 28.6699 551.369C27.0899 540.959 30.1999 542.589 31.7699 530.429C32.5099 522.329 24.7299 524.959 21.9399 516.619C22.2699 507.069 23.7799 504.279 24.3499 498.819C21.8899 488.279 31.4799 486.799 33.3199 476.299C29.1599 468.249 28.6999 468.099 28.6499 460.749C26.4299 450.159 26.7399 450.259 23.5799 442.069C24.6299 434.829 21.5399 435.239 24.0099 424.409C21.4199 414.469 23.9699 415.849 26.8799 405.229C22.4799 398.489 14.3899 398.429 15.3699 388.179C11.9899 381.109 20.8399 379.649 20.1099 370.759C18.3399 361.079 18.6199 361.889 18.4699 355.369C17.3699 346.279 11.7899 345.859 9.81994 334.029C11.5599 326.329 9.48994 327.379 8.44994 319.829C6.84994 307.349 18.4799 306.709 18.9599 299.849C16.2399 291.979 17.3499 288.469 20.4799 281.489C18.1699 270.799 6.12994 275.379 4.71994 262.939C2.80994 255.469 12.7899 254.069 13.0299 245.709C10.9099 235.099 7.76994 239.149 8.18994 229.629C8.69994 218.949 12.2899 217.489 11.1699 212.009C10.3199 200.069 10.3599 202.359 9.04994 191.669C5.53994 182.549 1.30994 181.929 2.72994 175.789C5.26994 164.249 6.98994 166.039 4.93994 156.039L4.84994 155.979Z" fill="#00746E" fill-opacity="0.1"/>
</svg>
