<svg width="436" height="610" viewBox="0 0 436 610" fill="none" xmlns="http://www.w3.org/2000/svg">
<path d="M435.336 402.473C437.597 383.65 434.058 363.991 425.063 347.035C418.181 336.763 402.55 319.218 393.161 313.959C392.031 313.32 389.868 312.436 389.671 310.961C390.998 307.078 397.978 303.736 400.584 299.854C426.931 271.103 424.965 229.033 401.911 199.299C393.21 187.454 383.478 181.409 370.992 175.806C365.143 176.249 360.62 174.971 354.476 175.561C346.955 176.839 340.712 178.067 334.076 181.114C318.593 188.044 307.631 201.412 297.112 213.994C294.31 216.353 294.556 216.746 297.702 219.941C304.583 226.674 320.215 239.993 328.276 229.524C328.964 228.591 327.588 230.9 328.276 230.95C329.947 230.95 329.751 227.264 331.52 226.231C338.599 220.874 343.662 213.65 353.05 212.519C357.376 211.88 363.422 214.387 365.634 217.729C366.863 219.302 368.387 220.285 369.812 221.906C373.892 225.789 374.63 229.917 378.12 233.505C379.496 237.24 381.266 242.597 381.413 246.431C381.708 247.365 382.396 248.397 382.15 249.134C379.742 260.733 374.924 274.445 363.078 280.785C359.981 282.603 364.553 281.276 363.078 282.8C360.866 284.127 356.688 283.832 354.328 285.159C350.691 287.026 346.414 287.42 342.974 288.403C337.566 290.418 331.619 291.99 326.113 292.826C324.934 292.973 323.754 292.285 322.525 292.236C320.51 292.728 318.101 292.728 315.447 292.777C313.628 292.924 313.431 293.465 312.153 293.76C311.416 293.956 309.007 293.612 308.762 293.17C308.516 292.826 309.155 292.482 308.909 292.433C305.665 292.236 300.848 292.728 297.898 293.563C289.689 295.185 269.585 294.349 262.85 297.249C261.966 297.495 262.85 295.726 262.113 295.676C261.327 295.578 259.754 295.676 258.132 295.578C251.741 295.48 241.173 295.431 230.998 295.136C226.181 294.644 223.723 289.287 224.214 284.913C226.082 255.72 224.853 223.725 225.591 193.352C225.738 165.387 226.623 133.294 225.001 103.413C226.279 99.4318 233.603 101.693 235.029 97.81C235.078 97.6625 235.225 97.4168 235.274 97.3185C235.324 96.7779 236.11 97.9083 236.257 97.2202C239.207 85.4741 244.221 71.8603 251.987 62.424C254.003 59.3769 257.394 54.6588 259.557 51.8083C261.179 50.1864 264.079 47.9256 265.013 46.6478C269.88 43.4533 277.056 40.357 284.233 39.2266C284.577 39.1774 285.314 39.0792 285.708 38.9809C287.231 38.8334 286.543 37.3099 287.428 37.6047C288.264 37.8505 289.05 38.7351 290.132 38.8334C293.327 39.4232 297.259 38.8334 298.341 42.4212C299.029 43.2567 300.454 43.9447 300.946 44.8294C301.339 45.5174 300.602 46.5987 301.781 47.7782C305.861 51.1694 308.663 56.6247 311.613 61.1462C312.399 62.3258 313.382 62.7681 314.119 63.063C314.857 63.2595 314.119 63.4561 313.333 63.8002C311.711 64.2425 313.136 67.4862 313.087 69.0589C313.628 75.9887 312.645 84.2945 309.843 89.3075C308.516 90.5362 307.139 91.5191 307.287 92.5512C307.631 92.9444 309.007 93.7308 308.368 94.7137C308.024 95.6475 307.975 97.1219 307.189 99.0878C305.714 101.447 304.092 105.133 301.732 106.509C300.553 106.656 300.897 107.836 300.307 109.065C299.668 111.178 297.603 112.947 296.866 114.962C297.751 118.403 302.126 122.629 306.107 129.068C309.843 135.702 314.955 140.322 314.66 144.057C314.66 144.156 314.808 144.057 315.004 143.812C315.594 143.025 316.675 141.158 317.265 141.109C318.003 141.01 317.167 142.927 317.609 142.632C319.576 141.698 323.066 138.307 324.737 136.292C327.293 133.687 329.013 129.854 331.963 127.298C336.239 120.713 339.09 114.618 342.236 107.295C358.752 67.6336 344.252 22.32 307.68 2.07136C295.735 -0.582586 283.25 -0.779174 271.404 2.02221C248.35 6.69119 228.737 25.8094 216.35 44.7311C214.777 47.6799 212.663 53.8724 210.156 47.8274C186.906 -3.87544 108.257 -6.87342 81.3201 42.5195C79.1081 47.1393 78.3216 51.6117 75.7164 56.3789C74.9299 58.2957 75.4706 60.6056 75.7655 62.6206C75.7655 69.9436 75.913 76.2344 78.8132 85.6215C83.1388 102.282 91.9376 117.125 106.881 128.969C109.879 130.788 111.6 134.719 114.254 136.489C122.512 132.36 138.094 114.815 130.623 105.182C130.279 104.887 129.591 104.347 129.246 104.052C128.952 103.806 129.05 103.855 129.197 103.904C129.394 104.003 130.328 104.494 130.574 104.297C130.967 102.676 129.148 103.02 127.28 101.643C117.449 90.3888 106.783 72.5975 117.4 58.5414C121.185 53.6759 127.772 48.6137 133.228 46.9427C137.701 45.4191 142.322 45.6157 146.353 44.7802C160.362 47.6308 171.913 55.1011 177.025 68.2726C178.648 72.106 177.369 66.1101 178.893 68.0268C180.171 70.3859 179.532 75.3497 180.712 78.102C182.334 82.3286 182.531 85.5232 183.268 89.799C185.234 96.827 186.611 102.332 187.495 109.31C187.397 111.424 186.316 112.849 187.151 115.061C187.25 117.223 186.856 121.892 188.184 123.809C188.331 124.792 187.84 127.937 187.348 127.446C186.906 127.347 186.758 126.61 186.758 127.888C186.66 133.687 187.495 136.145 188.085 140.077C189.019 148.579 189.658 167.304 190.838 173.497C191.084 174.529 191.575 173.791 192.067 174.234C192.509 174.48 192.853 175.61 192.362 175.954C191.772 176.347 190.248 174.824 190.101 175.708C189.953 176.495 190.052 178.166 190.002 179.886C189.855 194.876 189.511 230.262 188.577 239.403C188.577 240.189 187.643 240.976 187.151 241.762C186.856 243.187 187.692 244.711 187.004 246.087C186.168 247.709 187.741 247.217 188.675 247.709C189.265 248.2 189.068 249.527 188.872 250.51C190.445 259.897 189.216 269.825 188.872 279.458C188.675 280.883 188.134 279.556 187.889 279.949C187.495 283.684 191.969 292.924 186.463 294.89C178.746 295.873 170.34 294.399 162.623 294.399C159.624 294.202 162.721 293.219 160.755 293.268C155.839 294.595 148.663 294.448 143.354 294.349C140.945 294.349 140.208 297.102 137.406 297.79C126.15 298.085 112.239 297.79 101.67 297.593C96.3124 296.119 92.1342 297.347 87.317 296.905C86.2356 296.807 86.8255 297.593 85.6949 297.397C84.761 297.249 83.9253 296.561 83.4338 296.512C75.913 297.888 64.9022 294.055 57.3815 290.418C53.6457 288.304 52.2693 282.898 49.959 280.097C47.6979 276.165 44.3062 271.693 42.979 267.171C41.4552 261.421 42.3891 254.393 43.9129 248.741C44.6994 244.465 44.9943 243.04 46.6165 239.599C46.7148 235.963 46.5182 233.407 47.8945 229.524C48.5335 227.608 50.8438 223.528 52.6626 223.528C54.2847 223.381 55.7593 222.201 56.9391 221.022C60.9698 218.171 63.1326 214.928 66.2786 211.242C67.7041 210.062 68.3922 210.898 69.7686 210.013C70.8992 209.374 73.2095 209.177 74.5858 209.325C76.1588 209.521 77.8301 208.686 79.5013 208.981C82.4015 209.423 86.0881 212.372 88.3001 213.257C90.9545 213.797 95.4276 217.188 97.1972 218.712C98.1803 219.351 98.9177 219.253 100.343 219.056C102.899 218.909 105.75 222.84 104.915 225.543C110.715 222.496 117.842 217.532 123.643 213.846C128.214 210.406 131.901 208.637 132.786 204.41C132.884 204.066 133.376 203.919 133.326 203.722C130.525 196.841 123.495 189.617 117.842 185.095C114.893 183.031 110.715 181.753 107.815 180.082C107.028 179.886 106.537 179.886 106.045 179.394C103.342 176.396 96.7548 173.497 93.3631 172.317C91.9376 171.826 91.8393 173.054 91.2986 173.054C90.5613 172.907 89.5782 171.236 88.4967 171.285C87.0712 171.187 86.9238 170.941 85.7932 170.892C82.4015 170.499 79.1573 172.415 76.0605 170.793C74.9299 170.793 73.2586 171.383 72.4721 171.138C71.9806 171.039 71.1941 170.351 70.4076 170.597C69.7686 170.793 68.8346 171.285 67.9499 171.776C63.7717 174.037 58.7087 175.659 53.9898 177.035C49.5658 178.657 44.4536 183.031 39.8822 184.899C37.8668 185.144 38.6042 186.815 36.9329 188.29C22.1863 201.117 10.0449 218.171 6.75154 237.928C3.75307 244.318 4.048 247.66 3.40898 254.294C3.26151 260.929 2.76996 268.154 5.32604 274.494C7.14478 276.067 6.45661 279.261 7.14478 281.424C8.12789 283.979 8.81606 284.029 9.84832 286.093C12.1095 290.074 12.8959 293.71 15.6486 296.315C18.6963 305.113 23.366 311.944 30.1494 319.169C31.0342 321.479 28.8714 322.806 27.2001 325.017C25.4305 327.327 22.8253 329.391 21.5964 331.701C21.2032 332.733 20.9083 333.421 19.876 334.355C18.4505 335.436 17.3199 337.845 16.1402 339.663C14.5181 342.12 12.3552 344.479 12.2569 346.888C7.3414 352.392 4.98195 360.501 2.91743 367.824C1.54108 373.722 -1.11331 386.058 0.508819 388.663C0.951216 388.024 1.68855 387.287 1.78686 388.368C1.93432 390.432 0.213887 393.971 0.557974 396.231C1.14784 399.967 1.59023 401.392 2.1801 404.783C3.35982 412.794 11.323 419.576 14.6164 426.506C15.6486 427.538 17.3691 429.553 18.5488 430.585C19.3844 431.175 20.1709 431.175 20.8591 432.011C21.6456 432.944 21.3998 433.682 21.3507 434.026C21.2523 434.37 22.2846 435.205 23.9067 436.385C31.0834 440.071 39.9313 445.379 47.6487 447.099C48.5335 447.246 49.3692 445.477 49.959 446.509C50.1065 447 49.32 447.639 49.2708 448.229C49.2708 448.671 49.8607 448.966 50.7947 449.31C65.0497 455.306 80.5336 451.522 94.6903 451.129C96.6074 450.736 96.4599 450.981 96.3124 449.261C96.5582 447.885 97.9837 448.377 99.1143 447.344C103.145 444.494 109.191 442.037 113.615 440.169C115.483 440.906 115.876 438.252 117.695 436.925C120.054 434.763 123.643 432.699 123.151 431.175C121.873 426.85 110.469 408.666 106.93 403.309C106.635 401.343 106.143 403.997 105.357 403.948C104.669 402.571 103.784 403.161 102.408 403.948C90.3155 413.138 71.1449 422.673 57.1357 412.352C32.7547 398.148 36.6871 380.701 48.2386 359.813C52.9575 354.211 58.6595 348.411 63.6733 343.791C66.5243 341.187 68.1465 335.535 72.6196 335.043C73.062 334.65 73.062 334.109 74.4875 334.306C78.4691 335.83 84.1219 336.665 88.0052 336.37C91.6427 337.107 97.0498 337.107 100.835 336.518C104.374 335.78 108.601 335.879 111.944 335.535C113.861 335.78 114.844 336.862 117.105 336.272C118.236 336.272 120.693 336.567 122.266 336.272C123.495 335.928 124.183 335.24 126.002 335.879C127.624 336.419 126.248 337.157 127.821 337.157C130.574 337.255 133.376 337.009 135.882 336.272C141.24 335.387 155.004 335.043 162.328 333.815C164.392 333.716 163.311 332.045 164.835 331.947C165.818 332.242 164.54 333.815 165.032 334.208C167.538 334.797 172.306 334.355 175.797 334.503C179.876 335.436 193.296 332.094 193.443 337.697C195.016 384.829 195.065 432.06 196.343 475.702C196.393 478.897 195.606 482.239 195.557 485.433C196.343 491.331 197.425 496.295 197.277 502.291C197.228 508.189 196.737 516.74 195.803 521.901C195.311 521.851 194.623 522.392 194.721 523.031C196.245 529.42 192.952 537.923 191.182 544.312C188.184 554.092 185.038 557.876 175.944 562.3C168.472 567.952 157.855 569.426 149.253 565.396C142.174 565.838 134.309 564.216 128.755 559.154C127.28 558.171 128.313 556.844 127.379 555.37C124.675 551.045 122.611 548.882 118.187 544.852C115.925 542.886 115.237 541.658 114.746 538.758C113.959 536.546 113.763 533.303 114.057 530.993C113.959 529.862 112.878 528.191 113.959 525.292C114.893 522.392 116.958 519.591 117.646 517.527C118.236 514.578 120.988 510.499 122.611 508.287C124.331 506.124 122.119 504.011 124.282 501.701C125.56 500.423 127.575 499.096 129.394 499.49C128.214 496.442 123.2 490.397 120.841 486.711C115.385 479.487 112.288 473.54 106.045 472.459C99.3601 475.751 93.1173 482.583 88.9391 488.284C87.2187 490.446 85.9407 493.788 85.2525 496.344C84.5643 497.819 83.5321 499.44 83.5812 500.374C81.2709 503.569 77.0927 511.088 76.5029 514.971C76.4046 515.954 77.3877 516.101 77.3877 516.544C77.2894 517.33 75.6181 518.362 75.6672 519.394C74.9791 522.54 75.3723 525.095 76.1588 527.995C76.3062 529.666 75.6672 530.403 75.4706 531.681C75.4706 532.762 76.0605 534.384 75.8147 535.121C75.6672 535.711 74.8807 536.596 75.4214 537.529C75.7164 538.316 76.2571 539.102 76.7486 540.134C77.9775 542.739 80.0421 547.703 80.2878 549.423C80.9268 556.304 87.4153 562.349 88.7917 568.885C99.7533 577.535 107.962 591.493 122.217 596.85C133.572 601.716 143.747 605.107 156.233 606.286C159.084 607.22 160.018 607.367 163.114 606.974C174.322 606.041 188.036 602.551 195.999 594.147C196.835 593.606 198.211 593.705 199.194 593.115C200.964 591.984 200.964 591.739 201.996 590.903C207.305 587.119 212.27 584.268 216.448 579.452C219.545 577.437 222.74 583.138 225.492 585.3C230.015 588.053 230.015 589.38 235.569 593.115C237.88 595.13 239.256 596.113 241.468 596.555C242.746 597.145 242.893 598.324 244.368 599.209C254.396 605.746 274.795 611.545 284.577 609.628C280.35 606.532 291.361 610.021 292.835 609.284C297.8 608.4 298.93 607.613 303.944 606.286C311.367 603.78 314.906 597.784 320.706 593.41C322.525 592.574 322.771 592.378 323.705 591.002C325.229 589.576 326.752 587.709 327.342 585.743C328.374 584.072 329.407 585.202 330.046 584.465C332.454 581.909 332.848 578.715 334.322 575.569C336.731 569.819 339.828 563.676 340.467 557.631C340.565 556.648 339.434 556.304 339.434 555.566C340.565 554.534 341.99 557.09 342.482 553.846C346.857 540.626 342.974 524.063 342.974 511.383C342.679 509.073 342.58 509.909 340.762 509.712C339.287 507.107 337.075 503.913 335.944 500.227C335.109 497.425 332.798 494.624 332.798 492.117C333.487 490.643 330.636 489.709 329.702 488.186C327.637 485.728 325.769 482.042 324.196 482.435C319.477 483.517 300.356 494.526 294.752 497.425C294.949 497.425 295.735 498.113 295.981 498.507C296.276 498.851 295.539 498.998 295.293 499.244C295.047 499.44 294.998 499.834 295.391 500.718C298.685 506.321 301.929 511.629 304.78 517.527C307.631 525.39 309.597 534.482 308.221 542.542C305.517 552.912 297.554 564.954 287.772 570.458C276.27 572.915 260.344 566.035 252.036 557.09C248.399 553.011 243.041 547.555 239.846 543.23C237.339 541.559 234.635 539.888 233.357 536.841C233.849 527.651 236.356 515.511 235.815 507.304C235.717 506.862 235.078 509.614 234.537 509.958C234.291 510.154 234.045 509.614 233.996 508.729C234.095 505.879 236.061 500.866 235.963 497.966C235.963 495.263 235.766 492.707 235.618 490.84C236.307 485.384 235.569 477.619 234.193 472.311C234.439 469.313 233.21 464.349 233.898 462.727C234.635 460.762 234.439 460.368 234.193 458.599C234.095 457.076 234.488 452.849 233.898 451.964C233.21 450.736 233.161 449.163 233.701 447.738C234.291 446.46 234.832 448.327 234.734 446.509C233.947 436.041 232.128 427.931 231.293 414.809C230.605 411.762 231.194 406.503 229.277 405.471C228.884 405.569 228.049 404.832 228.294 404.046C228.589 403.014 230.605 404.881 230.752 403.8C230.801 394.216 229.769 361.042 230.261 347.821C230.162 346.74 230.949 345.905 231.686 344.971C231.883 343.939 231.342 343.103 231.489 342.268C231.637 340.548 232.522 339.81 230.261 339.909C229.769 339.81 229.425 339.172 229.474 338.385C229.818 336.468 228.835 334.453 230.605 333.913C235.029 333.618 241.271 334.011 245.695 334.06C247.662 334.257 245.597 335.24 247.17 335.043C248.743 334.896 250.955 333.765 253.708 333.569C279.907 329.686 310.334 333.569 338.156 329.49C340.172 329.49 340.909 331.111 342.04 331.603C342.728 331.898 342.728 331.898 342.433 332.389C342.138 332.733 342.531 332.93 343.318 332.93C344.94 332.881 346.759 333.962 348.331 334.699C362.931 339.221 375.809 348.608 386.181 359.322C392.473 366.35 395.029 374.951 396.553 385.124C396.602 385.419 396.749 386.009 396.799 386.304C397.094 387.188 398.273 386.599 398.273 387.237C396.16 390.629 396.995 394.61 396.16 398.148C395.275 399.868 393.898 399.524 393.161 401.294C392.817 401.785 392.473 402.375 391.981 402.719C391.392 403.112 390.261 402.424 389.278 403.653C386.181 408.862 377.923 411.909 375.121 416.627C374.925 416.382 374.58 415.202 373.745 415.153C371.926 415.448 367.355 416.333 362.832 415.841C356.983 415.055 352.166 414.465 349.56 410.877C347.643 408.42 347.742 411.762 345.825 410.976C342.531 410.484 337.861 407.584 335.305 405.078C334.027 403.21 334.961 403.456 332.307 402.473C330.144 401.785 327.932 399.082 326.556 398.787C323.017 399.475 318.691 403.653 312.006 407.29C305.026 410.73 300.602 415.35 296.522 415.104C296.424 415.202 298.144 416.382 298.98 417.168C299.815 417.954 299.127 418.298 298.341 418.004C297.505 417.807 297.849 418.004 298.291 418.741C300.749 423.213 304.977 426.948 309.401 430.094C311.268 432.355 313.972 434.763 316.577 435.893C318.347 437.122 320.657 439.137 322.771 439.776C339.533 449.949 364.16 455.405 383.92 449.507C405.499 442.774 429.536 426.703 435.041 403.112V402.571L435.336 402.473ZM59.0527 176.888C59.0527 176.888 58.7578 176.986 58.6103 177.035C58.6103 176.691 58.6103 176.347 58.6103 176.052C58.807 176.052 59.0527 176.052 59.2985 176.052C59.1019 176.249 58.9053 176.396 58.807 176.593L59.1019 176.888H59.0527ZM80.7794 547.949C80.7794 547.949 81.1235 548.342 81.3201 548.44L81.4676 548.293C81.4676 548.293 81.4676 548.489 81.5167 548.637C81.2218 548.637 80.976 548.637 80.7302 548.637V547.949M216.645 578.027C216.89 577.732 217.038 577.388 217.234 577.044C217.333 577.142 217.431 577.24 217.529 577.339C217.234 577.584 216.89 577.879 216.595 578.027" fill="white" fill-opacity="0.3"/>
</svg>
