<svg width="20" height="20" viewBox="0 0 20 20" fill="none" xmlns="http://www.w3.org/2000/svg">
<path fill-rule="evenodd" clip-rule="evenodd" d="M2.23749 9.45764C7.06919 7.34058 10.2912 5.9452 11.9032 5.27085C16.5059 3.34579 17.4625 3.01111 18.0857 3.00011C18.2229 2.99778 18.5292 3.03178 18.7281 3.19378C18.8959 3.33045 18.9419 3.51546 18.9641 3.64513C18.9864 3.7748 19.0139 4.07048 18.992 4.30115C18.7427 6.93657 17.6634 13.3321 17.1141 16.2839C16.8818 17.5329 16.4243 17.9516 15.9815 17.9926C15.0188 18.0816 14.2882 17.3529 13.3558 16.7385C11.8969 15.7768 11.0728 15.1785 9.65708 14.2401C8.02055 13.1558 9.08163 12.5597 10.0141 11.5857C10.2581 11.3307 14.4991 7.45191 14.5809 7.0999C14.5912 7.0559 14.6008 6.8919 14.5037 6.80523C14.4066 6.71856 14.2637 6.74823 14.1606 6.77189C14.0144 6.80523 11.6841 8.35428 7.16963 11.4187C6.50832 11.8754 5.909 12.0981 5.37233 12.0864C4.78063 12.0734 3.64232 11.75 2.79604 11.4734C1.7575 11.134 0.932439 10.9547 1.00437 10.3787C1.04183 10.0787 1.45287 9.77165 2.23749 9.45798V9.45764Z" fill="#033958"/>
</svg>
